<svg width="251" height="40" viewBox="0 0 251 40" fill="none" xmlns="http://www.w3.org/2000/svg">
<rect x="0.4" y="0.4" width="250.2" height="39.2" rx="7.6" fill="#F5F5F5" stroke="#E0E0E0" stroke-width="0.8"/>
<rect x="4" y="4" width="119" height="32" rx="8" fill="#00C247"/>
<path d="M38.9471 16.81V19.26H42.2371V20.814H38.9471V23.404H42.6571V25H36.9871V15.214H42.6571V16.81H38.9471ZM54.2703 17.132C55.2223 17.132 55.9876 17.426 56.5663 18.014C57.1543 18.5927 57.4483 19.4047 57.4483 20.45V25H55.4883V20.716C55.4883 20.1093 55.3343 19.6473 55.0263 19.33C54.7183 19.0033 54.2983 18.84 53.7663 18.84C53.2343 18.84 52.8096 19.0033 52.4923 19.33C52.1843 19.6473 52.0303 20.1093 52.0303 20.716V25H50.0703V20.716C50.0703 20.1093 49.9163 19.6473 49.6083 19.33C49.3003 19.0033 48.8803 18.84 48.3483 18.84C47.8069 18.84 47.3776 19.0033 47.0603 19.33C46.7523 19.6473 46.5983 20.1093 46.5983 20.716V25H44.6383V17.244H46.5983V18.182C46.8503 17.8553 47.1723 17.5987 47.5643 17.412C47.9656 17.2253 48.4043 17.132 48.8803 17.132C49.4869 17.132 50.0283 17.2627 50.5043 17.524C50.9803 17.776 51.3489 18.14 51.6103 18.616C51.8623 18.168 52.2263 17.8087 52.7023 17.538C53.1876 17.2673 53.7103 17.132 54.2703 17.132ZM62.5401 21.094C62.5401 20.31 62.6941 19.6147 63.0021 19.008C63.3195 18.4013 63.7441 17.9347 64.2761 17.608C64.8175 17.2813 65.4195 17.118 66.0821 17.118C66.6608 17.118 67.1648 17.2347 67.5941 17.468C68.0328 17.7013 68.3828 17.9953 68.6441 18.35V17.244H70.6181V25H68.6441V23.866C68.3921 24.23 68.0421 24.5333 67.5941 24.776C67.1555 25.0093 66.6468 25.126 66.0681 25.126C65.4148 25.126 64.8175 24.958 64.2761 24.622C63.7441 24.286 63.3195 23.8147 63.0021 23.208C62.6941 22.592 62.5401 21.8873 62.5401 21.094ZM68.6441 21.122C68.6441 20.646 68.5508 20.24 68.3641 19.904C68.1775 19.5587 67.9255 19.2973 67.6081 19.12C67.2908 18.9333 66.9501 18.84 66.5861 18.84C66.2221 18.84 65.8861 18.9287 65.5781 19.106C65.2701 19.2833 65.0181 19.5447 64.8221 19.89C64.6355 20.226 64.5421 20.6273 64.5421 21.094C64.5421 21.5607 64.6355 21.9713 64.8221 22.326C65.0181 22.6713 65.2701 22.9373 65.5781 23.124C65.8955 23.3107 66.2315 23.404 66.5861 23.404C66.9501 23.404 67.2908 23.3153 67.6081 23.138C67.9255 22.9513 68.1775 22.69 68.3641 22.354C68.5508 22.0087 68.6441 21.598 68.6441 21.122ZM74.6924 14.64V25H72.7324V14.64H74.6924ZM79.1109 18.854V22.606C79.1109 22.8673 79.1716 23.0587 79.2929 23.18C79.4236 23.292 79.6382 23.348 79.9369 23.348H80.8469V25H79.6149C77.9629 25 77.1369 24.1973 77.1369 22.592V18.854H76.2129V17.244H77.1369V15.326H79.1109V17.244H80.8469V18.854H79.1109ZM81.9526 21.094C81.9526 20.31 82.1066 19.6147 82.4146 19.008C82.732 18.4013 83.1566 17.9347 83.6886 17.608C84.23 17.2813 84.832 17.118 85.4946 17.118C86.0733 17.118 86.5773 17.2347 87.0066 17.468C87.4453 17.7013 87.7953 17.9953 88.0566 18.35V17.244H90.0306V25H88.0566V23.866C87.8046 24.23 87.4546 24.5333 87.0066 24.776C86.568 25.0093 86.0593 25.126 85.4806 25.126C84.8273 25.126 84.23 24.958 83.6886 24.622C83.1566 24.286 82.732 23.8147 82.4146 23.208C82.1066 22.592 81.9526 21.8873 81.9526 21.094ZM88.0566 21.122C88.0566 20.646 87.9633 20.24 87.7766 19.904C87.59 19.5587 87.338 19.2973 87.0206 19.12C86.7033 18.9333 86.3626 18.84 85.9986 18.84C85.6346 18.84 85.2986 18.9287 84.9906 19.106C84.6826 19.2833 84.4306 19.5447 84.2346 19.89C84.048 20.226 83.9546 20.6273 83.9546 21.094C83.9546 21.5607 84.048 21.9713 84.2346 22.326C84.4306 22.6713 84.6826 22.9373 84.9906 23.124C85.308 23.3107 85.644 23.404 85.9986 23.404C86.3626 23.404 86.7033 23.3153 87.0206 23.138C87.338 22.9513 87.59 22.69 87.7766 22.354C87.9633 22.0087 88.0566 21.598 88.0566 21.122Z" fill="white"/>
<path d="M157.221 16.278V19.54H160.777V20.59H157.221V23.95H161.197V25H155.947V15.228H161.197V16.278H157.221ZM172.551 17.188C173.148 17.188 173.68 17.314 174.147 17.566C174.614 17.8087 174.982 18.1773 175.253 18.672C175.524 19.1667 175.659 19.7687 175.659 20.478V25H174.399V20.66C174.399 19.8947 174.208 19.3113 173.825 18.91C173.452 18.4993 172.943 18.294 172.299 18.294C171.636 18.294 171.109 18.5087 170.717 18.938C170.325 19.358 170.129 19.9693 170.129 20.772V25H168.869V20.66C168.869 19.8947 168.678 19.3113 168.295 18.91C167.922 18.4993 167.413 18.294 166.769 18.294C166.106 18.294 165.579 18.5087 165.187 18.938C164.795 19.358 164.599 19.9693 164.599 20.772V25H163.325V17.328H164.599V18.434C164.851 18.0327 165.187 17.7247 165.607 17.51C166.036 17.2953 166.508 17.188 167.021 17.188C167.665 17.188 168.234 17.3327 168.729 17.622C169.224 17.9113 169.592 18.336 169.835 18.896C170.05 18.3547 170.404 17.9347 170.899 17.636C171.394 17.3373 171.944 17.188 172.551 17.188ZM183.155 18.756C183.417 18.2987 183.799 17.9253 184.303 17.636C184.807 17.3467 185.381 17.202 186.025 17.202C186.716 17.202 187.337 17.3653 187.887 17.692C188.438 18.0187 188.872 18.4807 189.189 19.078C189.507 19.666 189.665 20.352 189.665 21.136C189.665 21.9107 189.507 22.6013 189.189 23.208C188.872 23.8147 188.433 24.286 187.873 24.622C187.323 24.958 186.707 25.126 186.025 25.126C185.363 25.126 184.779 24.9813 184.275 24.692C183.781 24.4027 183.407 24.034 183.155 23.586V25H181.881V14.64H183.155V18.756ZM188.363 21.136C188.363 20.5573 188.247 20.0533 188.013 19.624C187.78 19.1947 187.463 18.868 187.061 18.644C186.669 18.42 186.235 18.308 185.759 18.308C185.293 18.308 184.859 18.4247 184.457 18.658C184.065 18.882 183.748 19.2133 183.505 19.652C183.272 20.0813 183.155 20.5807 183.155 21.15C183.155 21.7287 183.272 22.2373 183.505 22.676C183.748 23.1053 184.065 23.4367 184.457 23.67C184.859 23.894 185.293 24.006 185.759 24.006C186.235 24.006 186.669 23.894 187.061 23.67C187.463 23.4367 187.78 23.1053 188.013 22.676C188.247 22.2373 188.363 21.724 188.363 21.136ZM191.066 21.136C191.066 20.352 191.225 19.666 191.542 19.078C191.86 18.4807 192.294 18.0187 192.844 17.692C193.404 17.3653 194.025 17.202 194.706 17.202C195.378 17.202 195.962 17.3467 196.456 17.636C196.951 17.9253 197.32 18.2893 197.562 18.728V17.328H198.85V25H197.562V23.572C197.31 24.02 196.932 24.3933 196.428 24.692C195.934 24.9813 195.355 25.126 194.692 25.126C194.011 25.126 193.395 24.958 192.844 24.622C192.294 24.286 191.86 23.8147 191.542 23.208C191.225 22.6013 191.066 21.9107 191.066 21.136ZM197.562 21.15C197.562 20.5713 197.446 20.0673 197.212 19.638C196.979 19.2087 196.662 18.882 196.26 18.658C195.868 18.4247 195.434 18.308 194.958 18.308C194.482 18.308 194.048 18.42 193.656 18.644C193.264 18.868 192.952 19.1947 192.718 19.624C192.485 20.0533 192.368 20.5573 192.368 21.136C192.368 21.724 192.485 22.2373 192.718 22.676C192.952 23.1053 193.264 23.4367 193.656 23.67C194.048 23.894 194.482 24.006 194.958 24.006C195.434 24.006 195.868 23.894 196.26 23.67C196.662 23.4367 196.979 23.1053 197.212 22.676C197.446 22.2373 197.562 21.7287 197.562 21.15ZM201.861 16.082C201.619 16.082 201.413 15.998 201.245 15.83C201.077 15.662 200.993 15.4567 200.993 15.214C200.993 14.9713 201.077 14.766 201.245 14.598C201.413 14.43 201.619 14.346 201.861 14.346C202.095 14.346 202.291 14.43 202.449 14.598C202.617 14.766 202.701 14.9713 202.701 15.214C202.701 15.4567 202.617 15.662 202.449 15.83C202.291 15.998 202.095 16.082 201.861 16.082ZM202.477 17.328V25H201.203V17.328H202.477ZM208.853 25L207.033 22.144L205.283 25H203.953L206.431 21.192L203.953 17.328H205.395L207.215 20.17L208.951 17.328H210.281L207.817 21.122L210.295 25H208.853ZM211.272 21.136C211.272 20.352 211.43 19.666 211.748 19.078C212.065 18.4807 212.499 18.0187 213.05 17.692C213.61 17.3653 214.23 17.202 214.912 17.202C215.584 17.202 216.167 17.3467 216.662 17.636C217.156 17.9253 217.525 18.2893 217.768 18.728V17.328H219.056V25H217.768V23.572C217.516 24.02 217.138 24.3933 216.634 24.692C216.139 24.9813 215.56 25.126 214.898 25.126C214.216 25.126 213.6 24.958 213.05 24.622C212.499 24.286 212.065 23.8147 211.748 23.208C211.43 22.6013 211.272 21.9107 211.272 21.136ZM217.768 21.15C217.768 20.5713 217.651 20.0673 217.418 19.638C217.184 19.2087 216.867 18.882 216.466 18.658C216.074 18.4247 215.64 18.308 215.164 18.308C214.688 18.308 214.254 18.42 213.862 18.644C213.47 18.868 213.157 19.1947 212.924 19.624C212.69 20.0533 212.574 20.5573 212.574 21.136C212.574 21.724 212.69 22.2373 212.924 22.676C213.157 23.1053 213.47 23.4367 213.862 23.67C214.254 23.894 214.688 24.006 215.164 24.006C215.64 24.006 216.074 23.894 216.466 23.67C216.867 23.4367 217.184 23.1053 217.418 22.676C217.651 22.2373 217.768 21.7287 217.768 21.15Z" fill="#9E9E9E"/>
</svg>
