<svg width="251" height="40" viewBox="0 0 251 40" fill="none" xmlns="http://www.w3.org/2000/svg">
<rect x="0.4" y="0.4" width="250.2" height="39.2" rx="7.6" fill="#F5F5F5" stroke="#E0E0E0" stroke-width="0.8"/>
<rect x="128" y="4" width="119" height="32" rx="8" fill="#FF3333"/>
<path d="M38.8516 16.278V19.54H42.4076V20.59H38.8516V23.95H42.8276V25H37.5776V15.228H42.8276V16.278H38.8516ZM54.1813 17.188C54.7787 17.188 55.3107 17.314 55.7773 17.566C56.244 17.8087 56.6127 18.1773 56.8833 18.672C57.154 19.1667 57.2893 19.7687 57.2893 20.478V25H56.0293V20.66C56.0293 19.8947 55.838 19.3113 55.4553 18.91C55.082 18.4993 54.5733 18.294 53.9293 18.294C53.2667 18.294 52.7393 18.5087 52.3473 18.938C51.9553 19.358 51.7593 19.9693 51.7593 20.772V25H50.4993V20.66C50.4993 19.8947 50.308 19.3113 49.9253 18.91C49.552 18.4993 49.0433 18.294 48.3993 18.294C47.7367 18.294 47.2093 18.5087 46.8173 18.938C46.4253 19.358 46.2293 19.9693 46.2293 20.772V25H44.9553V17.328H46.2293V18.434C46.4813 18.0327 46.8173 17.7247 47.2373 17.51C47.6667 17.2953 48.138 17.188 48.6513 17.188C49.2953 17.188 49.8647 17.3327 50.3593 17.622C50.854 17.9113 51.2227 18.336 51.4653 18.896C51.68 18.3547 52.0347 17.9347 52.5293 17.636C53.024 17.3373 53.5747 17.188 54.1813 17.188ZM63.0356 21.136C63.0356 20.352 63.1943 19.666 63.5116 19.078C63.8289 18.4807 64.2629 18.0187 64.8136 17.692C65.3736 17.3653 65.9943 17.202 66.6756 17.202C67.3476 17.202 67.9309 17.3467 68.4256 17.636C68.9203 17.9253 69.2889 18.2893 69.5316 18.728V17.328H70.8196V25H69.5316V23.572C69.2796 24.02 68.9016 24.3933 68.3976 24.692C67.9029 24.9813 67.3243 25.126 66.6616 25.126C65.9803 25.126 65.3643 24.958 64.8136 24.622C64.2629 24.286 63.8289 23.8147 63.5116 23.208C63.1943 22.6013 63.0356 21.9107 63.0356 21.136ZM69.5316 21.15C69.5316 20.5713 69.4149 20.0673 69.1816 19.638C68.9483 19.2087 68.6309 18.882 68.2296 18.658C67.8376 18.4247 67.4036 18.308 66.9276 18.308C66.4516 18.308 66.0176 18.42 65.6256 18.644C65.2336 18.868 64.9209 19.1947 64.6876 19.624C64.4543 20.0533 64.3376 20.5573 64.3376 21.136C64.3376 21.724 64.4543 22.2373 64.6876 22.676C64.9209 23.1053 65.2336 23.4367 65.6256 23.67C66.0176 23.894 66.4516 24.006 66.9276 24.006C67.4036 24.006 67.8376 23.894 68.2296 23.67C68.6309 23.4367 68.9483 23.1053 69.1816 22.676C69.4149 22.2373 69.5316 21.7287 69.5316 21.15ZM74.4465 14.64V25H73.1725V14.64H74.4465ZM78.3718 18.378V22.9C78.3718 23.2733 78.4512 23.5393 78.6098 23.698C78.7685 23.8473 79.0438 23.922 79.4358 23.922H80.3738V25H79.2258C78.5165 25 77.9845 24.8367 77.6298 24.51C77.2752 24.1833 77.0978 23.6467 77.0978 22.9V18.378H76.1038V17.328H77.0978V15.396H78.3718V17.328H80.3738V18.378H78.3718ZM81.6415 21.136C81.6415 20.352 81.8001 19.666 82.1175 19.078C82.4348 18.4807 82.8688 18.0187 83.4195 17.692C83.9795 17.3653 84.6001 17.202 85.2815 17.202C85.9535 17.202 86.5368 17.3467 87.0315 17.636C87.5261 17.9253 87.8948 18.2893 88.1375 18.728V17.328H89.4255V25H88.1375V23.572C87.8855 24.02 87.5075 24.3933 87.0035 24.692C86.5088 24.9813 85.9301 25.126 85.2675 25.126C84.5861 25.126 83.9701 24.958 83.4195 24.622C82.8688 24.286 82.4348 23.8147 82.1175 23.208C81.8001 22.6013 81.6415 21.9107 81.6415 21.136ZM88.1375 21.15C88.1375 20.5713 88.0208 20.0673 87.7875 19.638C87.5541 19.2087 87.2368 18.882 86.8355 18.658C86.4435 18.4247 86.0095 18.308 85.5335 18.308C85.0575 18.308 84.6235 18.42 84.2315 18.644C83.8395 18.868 83.5268 19.1947 83.2935 19.624C83.0601 20.0533 82.9435 20.5573 82.9435 21.136C82.9435 21.724 83.0601 22.2373 83.2935 22.676C83.5268 23.1053 83.8395 23.4367 84.2315 23.67C84.6235 23.894 85.0575 24.006 85.5335 24.006C86.0095 24.006 86.4435 23.894 86.8355 23.67C87.2368 23.4367 87.5541 23.1053 87.7875 22.676C88.0208 22.2373 88.1375 21.7287 88.1375 21.15Z" fill="#9E9E9E"/>
<path d="M157.221 16.278V19.54H160.777V20.59H157.221V23.95H161.197V25H155.947V15.228H161.197V16.278H157.221ZM172.551 17.188C173.148 17.188 173.68 17.314 174.147 17.566C174.614 17.8087 174.982 18.1773 175.253 18.672C175.524 19.1667 175.659 19.7687 175.659 20.478V25H174.399V20.66C174.399 19.8947 174.208 19.3113 173.825 18.91C173.452 18.4993 172.943 18.294 172.299 18.294C171.636 18.294 171.109 18.5087 170.717 18.938C170.325 19.358 170.129 19.9693 170.129 20.772V25H168.869V20.66C168.869 19.8947 168.678 19.3113 168.295 18.91C167.922 18.4993 167.413 18.294 166.769 18.294C166.106 18.294 165.579 18.5087 165.187 18.938C164.795 19.358 164.599 19.9693 164.599 20.772V25H163.325V17.328H164.599V18.434C164.851 18.0327 165.187 17.7247 165.607 17.51C166.036 17.2953 166.508 17.188 167.021 17.188C167.665 17.188 168.234 17.3327 168.729 17.622C169.224 17.9113 169.592 18.336 169.835 18.896C170.05 18.3547 170.404 17.9347 170.899 17.636C171.394 17.3373 171.944 17.188 172.551 17.188ZM183.155 18.756C183.417 18.2987 183.799 17.9253 184.303 17.636C184.807 17.3467 185.381 17.202 186.025 17.202C186.716 17.202 187.337 17.3653 187.887 17.692C188.438 18.0187 188.872 18.4807 189.189 19.078C189.507 19.666 189.665 20.352 189.665 21.136C189.665 21.9107 189.507 22.6013 189.189 23.208C188.872 23.8147 188.433 24.286 187.873 24.622C187.323 24.958 186.707 25.126 186.025 25.126C185.363 25.126 184.779 24.9813 184.275 24.692C183.781 24.4027 183.407 24.034 183.155 23.586V25H181.881V14.64H183.155V18.756ZM188.363 21.136C188.363 20.5573 188.247 20.0533 188.013 19.624C187.78 19.1947 187.463 18.868 187.061 18.644C186.669 18.42 186.235 18.308 185.759 18.308C185.293 18.308 184.859 18.4247 184.457 18.658C184.065 18.882 183.748 19.2133 183.505 19.652C183.272 20.0813 183.155 20.5807 183.155 21.15C183.155 21.7287 183.272 22.2373 183.505 22.676C183.748 23.1053 184.065 23.4367 184.457 23.67C184.859 23.894 185.293 24.006 185.759 24.006C186.235 24.006 186.669 23.894 187.061 23.67C187.463 23.4367 187.78 23.1053 188.013 22.676C188.247 22.2373 188.363 21.724 188.363 21.136ZM191.066 21.136C191.066 20.352 191.225 19.666 191.542 19.078C191.86 18.4807 192.294 18.0187 192.844 17.692C193.404 17.3653 194.025 17.202 194.706 17.202C195.378 17.202 195.962 17.3467 196.456 17.636C196.951 17.9253 197.32 18.2893 197.562 18.728V17.328H198.85V25H197.562V23.572C197.31 24.02 196.932 24.3933 196.428 24.692C195.934 24.9813 195.355 25.126 194.692 25.126C194.011 25.126 193.395 24.958 192.844 24.622C192.294 24.286 191.86 23.8147 191.542 23.208C191.225 22.6013 191.066 21.9107 191.066 21.136ZM197.562 21.15C197.562 20.5713 197.446 20.0673 197.212 19.638C196.979 19.2087 196.662 18.882 196.26 18.658C195.868 18.4247 195.434 18.308 194.958 18.308C194.482 18.308 194.048 18.42 193.656 18.644C193.264 18.868 192.952 19.1947 192.718 19.624C192.485 20.0533 192.368 20.5573 192.368 21.136C192.368 21.724 192.485 22.2373 192.718 22.676C192.952 23.1053 193.264 23.4367 193.656 23.67C194.048 23.894 194.482 24.006 194.958 24.006C195.434 24.006 195.868 23.894 196.26 23.67C196.662 23.4367 196.979 23.1053 197.212 22.676C197.446 22.2373 197.562 21.7287 197.562 21.15ZM201.861 16.082C201.619 16.082 201.413 15.998 201.245 15.83C201.077 15.662 200.993 15.4567 200.993 15.214C200.993 14.9713 201.077 14.766 201.245 14.598C201.413 14.43 201.619 14.346 201.861 14.346C202.095 14.346 202.291 14.43 202.449 14.598C202.617 14.766 202.701 14.9713 202.701 15.214C202.701 15.4567 202.617 15.662 202.449 15.83C202.291 15.998 202.095 16.082 201.861 16.082ZM202.477 17.328V25H201.203V17.328H202.477ZM208.853 25L207.033 22.144L205.283 25H203.953L206.431 21.192L203.953 17.328H205.395L207.215 20.17L208.951 17.328H210.281L207.817 21.122L210.295 25H208.853ZM211.272 21.136C211.272 20.352 211.43 19.666 211.748 19.078C212.065 18.4807 212.499 18.0187 213.05 17.692C213.61 17.3653 214.23 17.202 214.912 17.202C215.584 17.202 216.167 17.3467 216.662 17.636C217.156 17.9253 217.525 18.2893 217.768 18.728V17.328H219.056V25H217.768V23.572C217.516 24.02 217.138 24.3933 216.634 24.692C216.139 24.9813 215.56 25.126 214.898 25.126C214.216 25.126 213.6 24.958 213.05 24.622C212.499 24.286 212.065 23.8147 211.748 23.208C211.43 22.6013 211.272 21.9107 211.272 21.136ZM217.768 21.15C217.768 20.5713 217.651 20.0673 217.418 19.638C217.184 19.2087 216.867 18.882 216.466 18.658C216.074 18.4247 215.64 18.308 215.164 18.308C214.688 18.308 214.254 18.42 213.862 18.644C213.47 18.868 213.157 19.1947 212.924 19.624C212.69 20.0533 212.574 20.5573 212.574 21.136C212.574 21.724 212.69 22.2373 212.924 22.676C213.157 23.1053 213.47 23.4367 213.862 23.67C214.254 23.894 214.688 24.006 215.164 24.006C215.64 24.006 216.074 23.894 216.466 23.67C216.867 23.4367 217.184 23.1053 217.418 22.676C217.651 22.2373 217.768 21.7287 217.768 21.15Z" fill="white"/>
</svg>
