<svg width="24" height="24" viewBox="0 0 24 24" fill="none" xmlns="http://www.w3.org/2000/svg">
<path fill-rule="evenodd" clip-rule="evenodd" d="M3 2.25C3.41421 2.25 3.75 2.58579 3.75 3V20.25H21C21.4142 20.25 21.75 20.5858 21.75 21C21.75 21.4142 21.4142 21.75 21 21.75H3C2.58579 21.75 2.25 21.4142 2.25 21V3C2.25 2.58579 2.58579 2.25 3 2.25Z" fill="white"/>
<path fill-rule="evenodd" clip-rule="evenodd" d="M21.3224 2.32285C21.6963 2.50093 21.8551 2.94846 21.6771 3.32244L16.6771 13.8224C16.5753 14.0361 16.3787 14.1892 16.1466 14.2355C15.9144 14.2818 15.6741 14.2158 15.4982 14.0575L11.2303 10.2163L7.67074 17.3354C7.4855 17.7059 7.03499 17.8561 6.66451 17.6708C6.29403 17.4856 6.14386 17.0351 6.3291 16.6646L10.3291 8.66458C10.4338 8.45516 10.6303 8.30666 10.8604 8.26309C11.0904 8.21952 11.3276 8.28589 11.5016 8.44252L15.7548 12.2703L20.3228 2.67754C20.5009 2.30356 20.9484 2.14476 21.3224 2.32285Z" fill="white"/>
</svg>
