<svg width="152" height="72" viewBox="0 0 152 72" fill="none" xmlns="http://www.w3.org/2000/svg">
<g filter="url(#filter0_d_45_23366)">
<rect x="20" y="13" width="112" height="32" rx="16" fill="white" shape-rendering="crispEdges"/>
<path d="M41.0986 23.832C42.272 23.832 43.3013 24.0613 44.1866 24.52C45.0826 24.9787 45.7706 25.6347 46.2506 26.488C46.7413 27.3307 46.9866 28.312 46.9866 29.432C46.9866 30.552 46.7413 31.5333 46.2506 32.376C45.7706 33.208 45.0826 33.8533 44.1866 34.312C43.3013 34.7707 42.272 35 41.0986 35H37.1946V23.832H41.0986ZM41.0186 33.096C42.192 33.096 43.0986 32.776 43.7386 32.136C44.3786 31.496 44.6986 30.5947 44.6986 29.432C44.6986 28.2693 44.3786 27.3627 43.7386 26.712C43.0986 26.0507 42.192 25.72 41.0186 25.72H39.4346V33.096H41.0186ZM48.2874 30.536C48.2874 29.64 48.4634 28.8453 48.8154 28.152C49.178 27.4587 49.6634 26.9253 50.2714 26.552C50.89 26.1787 51.578 25.992 52.3354 25.992C52.9967 25.992 53.5727 26.1253 54.0634 26.392C54.5647 26.6587 54.9647 26.9947 55.2634 27.4V26.136H57.5194V35H55.2634V33.704C54.9754 34.12 54.5754 34.4667 54.0634 34.744C53.562 35.0107 52.9807 35.144 52.3194 35.144C51.5727 35.144 50.89 34.952 50.2714 34.568C49.6634 34.184 49.178 33.6453 48.8154 32.952C48.4634 32.248 48.2874 31.4427 48.2874 30.536ZM55.2634 30.568C55.2634 30.024 55.1567 29.56 54.9434 29.176C54.73 28.7813 54.442 28.4827 54.0794 28.28C53.7167 28.0667 53.3274 27.96 52.9114 27.96C52.4954 27.96 52.1114 28.0613 51.7594 28.264C51.4074 28.4667 51.1194 28.7653 50.8954 29.16C50.682 29.544 50.5754 30.0027 50.5754 30.536C50.5754 31.0693 50.682 31.5387 50.8954 31.944C51.1194 32.3387 51.4074 32.6427 51.7594 32.856C52.122 33.0693 52.506 33.176 52.9114 33.176C53.3274 33.176 53.7167 33.0747 54.0794 32.872C54.442 32.6587 54.73 32.36 54.9434 31.976C55.1567 31.5813 55.2634 31.112 55.2634 30.568ZM62.1471 27.512C62.4351 27.0427 62.8085 26.6747 63.2671 26.408C63.7365 26.1413 64.2698 26.008 64.8671 26.008V28.36H64.2751C63.5711 28.36 63.0378 28.5253 62.6751 28.856C62.3231 29.1867 62.1471 29.7627 62.1471 30.584V35H59.9071V26.136H62.1471V27.512ZM72.8284 27.432C73.1164 27.0053 73.511 26.6587 74.0124 26.392C74.5244 26.1253 75.1057 25.992 75.7564 25.992C76.5137 25.992 77.1964 26.1787 77.8044 26.552C78.423 26.9253 78.9084 27.4587 79.2604 28.152C79.623 28.8347 79.8044 29.6293 79.8044 30.536C79.8044 31.4427 79.623 32.248 79.2604 32.952C78.9084 33.6453 78.423 34.184 77.8044 34.568C77.1964 34.952 76.5137 35.144 75.7564 35.144C75.095 35.144 74.5137 35.016 74.0124 34.76C73.5217 34.4933 73.127 34.152 72.8284 33.736V35H70.5884V23.16H72.8284V27.432ZM77.5164 30.536C77.5164 30.0027 77.4044 29.544 77.1804 29.16C76.967 28.7653 76.679 28.4667 76.3164 28.264C75.9644 28.0613 75.5804 27.96 75.1644 27.96C74.759 27.96 74.375 28.0667 74.0124 28.28C73.6604 28.4827 73.3724 28.7813 73.1484 29.176C72.935 29.5707 72.8284 30.0347 72.8284 30.568C72.8284 31.1013 72.935 31.5653 73.1484 31.96C73.3724 32.3547 73.6604 32.6587 74.0124 32.872C74.375 33.0747 74.759 33.176 75.1644 33.176C75.5804 33.176 75.9644 33.0693 76.3164 32.856C76.679 32.6427 76.967 32.3387 77.1804 31.944C77.4044 31.5493 77.5164 31.08 77.5164 30.536ZM81.0561 30.536C81.0561 29.64 81.2321 28.8453 81.5841 28.152C81.9468 27.4587 82.4321 26.9253 83.0401 26.552C83.6588 26.1787 84.3468 25.992 85.1041 25.992C85.7655 25.992 86.3415 26.1253 86.8321 26.392C87.3335 26.6587 87.7335 26.9947 88.0321 27.4V26.136H90.2881V35H88.0321V33.704C87.7441 34.12 87.3441 34.4667 86.8321 34.744C86.3308 35.0107 85.7495 35.144 85.0881 35.144C84.3415 35.144 83.6588 34.952 83.0401 34.568C82.4321 34.184 81.9468 33.6453 81.5841 32.952C81.2321 32.248 81.0561 31.4427 81.0561 30.536ZM88.0321 30.568C88.0321 30.024 87.9255 29.56 87.7121 29.176C87.4988 28.7813 87.2108 28.4827 86.8481 28.28C86.4855 28.0667 86.0961 27.96 85.6801 27.96C85.2641 27.96 84.8801 28.0613 84.5281 28.264C84.1761 28.4667 83.8881 28.7653 83.6641 29.16C83.4508 29.544 83.3441 30.0027 83.3441 30.536C83.3441 31.0693 83.4508 31.5387 83.6641 31.944C83.8881 32.3387 84.1761 32.6427 84.5281 32.856C84.8908 33.0693 85.2748 33.176 85.6801 33.176C86.0961 33.176 86.4855 33.0747 86.8481 32.872C87.2108 32.6587 87.4988 32.36 87.7121 31.976C87.9255 31.5813 88.0321 31.112 88.0321 30.568ZM93.8119 25.08C93.4172 25.08 93.0865 24.9573 92.8199 24.712C92.5639 24.456 92.4359 24.1413 92.4359 23.768C92.4359 23.3947 92.5639 23.0853 92.8199 22.84C93.0865 22.584 93.4172 22.456 93.8119 22.456C94.2065 22.456 94.5319 22.584 94.7879 22.84C95.0545 23.0853 95.1879 23.3947 95.1879 23.768C95.1879 24.1413 95.0545 24.456 94.7879 24.712C94.5319 24.9573 94.2065 25.08 93.8119 25.08ZM94.9159 26.136V35H92.6759V26.136H94.9159ZM102.225 35L100.401 32.248L98.785 35H96.385L99.281 30.552L96.353 26.136H98.881L100.689 28.872L102.321 26.136H104.721L101.809 30.552L104.753 35H102.225ZM105.594 30.536C105.594 29.64 105.77 28.8453 106.122 28.152C106.484 27.4587 106.97 26.9253 107.578 26.552C108.196 26.1787 108.884 25.992 109.642 25.992C110.303 25.992 110.879 26.1253 111.37 26.392C111.871 26.6587 112.271 26.9947 112.57 27.4V26.136H114.826V35H112.57V33.704C112.282 34.12 111.882 34.4667 111.37 34.744C110.868 35.0107 110.287 35.144 109.626 35.144C108.879 35.144 108.196 34.952 107.578 34.568C106.97 34.184 106.484 33.6453 106.122 32.952C105.77 32.248 105.594 31.4427 105.594 30.536ZM112.57 30.568C112.57 30.024 112.463 29.56 112.25 29.176C112.036 28.7813 111.748 28.4827 111.386 28.28C111.023 28.0667 110.634 27.96 110.218 27.96C109.802 27.96 109.418 28.0613 109.066 28.264C108.714 28.4667 108.426 28.7653 108.202 29.16C107.988 29.544 107.882 30.0027 107.882 30.536C107.882 31.0693 107.988 31.5387 108.202 31.944C108.426 32.3387 108.714 32.6427 109.066 32.856C109.428 33.0693 109.812 33.176 110.218 33.176C110.634 33.176 111.023 33.0747 111.386 32.872C111.748 32.6587 112.036 32.36 112.25 31.976C112.463 31.5813 112.57 31.112 112.57 30.568Z" fill="#004CE8"/>
</g>
<path d="M80.4521 52.9005C78.4504 55.4834 74.5496 55.4834 72.5479 52.9005L67.2487 46.0629C64.7024 42.7773 67.0441 38 71.2008 38H81.7992C85.9559 38 88.2976 42.7773 85.7513 46.0629L80.4521 52.9005Z" fill="white"/>
<defs>
<filter id="filter0_d_45_23366" x="0" y="0" width="152" height="72" filterUnits="userSpaceOnUse" color-interpolation-filters="sRGB">
<feFlood flood-opacity="0" result="BackgroundImageFix"/>
<feColorMatrix in="SourceAlpha" type="matrix" values="0 0 0 0 0 0 0 0 0 0 0 0 0 0 0 0 0 0 127 0" result="hardAlpha"/>
<feOffset dy="7"/>
<feGaussianBlur stdDeviation="10"/>
<feComposite in2="hardAlpha" operator="out"/>
<feColorMatrix type="matrix" values="0 0 0 0 0.733802 0 0 0 0 0.751002 0 0 0 0 0.804167 0 0 0 0.4 0"/>
<feBlend mode="normal" in2="BackgroundImageFix" result="effect1_dropShadow_45_23366"/>
<feBlend mode="normal" in="SourceGraphic" in2="effect1_dropShadow_45_23366" result="shape"/>
</filter>
</defs>
</svg>
